<?xml version="1.0" encoding="utf-8"?>
<!-- Generator: Adobe Illustrator 19.2.1, SVG Export Plug-In . SVG Version: 6.00 Build 0)  -->
<svg version="1.1" id="Слой_1" xmlns="http://www.w3.org/2000/svg" xmlns:xlink="http://www.w3.org/1999/xlink" x="0px" y="0px"
	 viewBox="0 0 1440 370" style="enable-background:new 0 0 1440 370;" xml:space="preserve">
<style type="text/css">
	.st0{fill:#101F34;}
	.st1{fill:none;stroke:#FFFFFF;stroke-width:0.25;stroke-miterlimit:10;}
	.st2{fill:none;stroke:#0074FF;stroke-linejoin:round;stroke-miterlimit:10;}
	.st3{fill:none;stroke:#FFFFFF;stroke-linejoin:round;stroke-miterlimit:10;}
	.st4{fill:none;stroke:#FFFFFF;stroke-width:0.5;stroke-linejoin:round;stroke-miterlimit:10;}
	.st5{fill:#101F34;stroke:#FFFFFF;stroke-linejoin:round;stroke-miterlimit:10;}
	.st6{fill:#101F34;stroke:#FFFFFF;stroke-width:0.5;stroke-linejoin:round;stroke-miterlimit:10;}
	.st7{fill:#101F34;stroke:#0074FF;stroke-linejoin:round;stroke-miterlimit:10;}
	.st8{fill:#101F34;stroke:#FFFFFF;stroke-miterlimit:10;}
	.st9{fill:none;stroke:#FFFFFF;stroke-width:0.5;stroke-miterlimit:10;}
	.st10{fill:#101F34;stroke:#FFFFFF;stroke-width:0.5;stroke-miterlimit:10;}
	.st11{fill:none;stroke:#FFFFFF;stroke-linecap:round;stroke-miterlimit:10;}
	.st12{fill:#101F34;stroke:#FFFFFF;stroke-width:0.25;stroke-miterlimit:10;}
	.st13{fill:#101F34;stroke:#0074FF;stroke-miterlimit:10;}
	.st14{fill:none;stroke:#00C3FF;stroke-width:2;stroke-miterlimit:10;}
	.st15{fill:#FFFFFF;stroke:#FFFFFF;stroke-width:0.5;stroke-miterlimit:10;}
	.st16{fill:#FFFFFF;stroke:#FFFFFF;stroke-linejoin:round;stroke-miterlimit:10;}
	.st17{fill:none;stroke:#FFFFFF;stroke-miterlimit:10;}
	.st18{fill:#00C3FF;}
</style>
<rect y="-0.2" class="st0" width="1440" height="370"/>
<line class="st1" x1="625.4" y1="308.7" x2="550" y2="352.4"/>
<line class="st1" x1="969.5" y1="109.4" x2="921.8" y2="137"/>
<line class="st1" x1="582" y1="-0.1" x2="270.4" y2="180.6"/>
<polyline class="st1" points="1106.4,369.3 1289.4,263.7 1114.4,161.9 "/>
<polyline class="st1" points="791.3,-0.1 367.7,247.1 579.8,369.4 "/>
<path class="st2" d="M650.1,91.4l31.8-17.5c36.6-20.1,81-19.6,117.1,1.3l7.6,4.4"/>
<polyline class="st3" points="1033.6,286.7 1033.6,203.3 875.7,109.5 625.2,257.1 625.2,369.9 "/>
<polyline class="st3" points="806.2,369.6 806.2,363.5 1011.3,243.4 1011.3,274.2 "/>
<polyline class="st4" points="1032.7,203.9 783.9,350.6 625.2,257.1 "/>
<line class="st4" x1="783.7" y1="350.2" x2="783.7" y2="369.8"/>
<path class="st5" d="M822.2,283.6"/>
<polyline class="st5" points="814,254 878.6,216.2 903.6,235.7 903.6,238.6 841.5,275.5 814,259.4 814,254 "/>
<path class="st4" d="M911,222c5.3,1.2,14.8-2.2,17-5.9"/>
<g>
	<path class="st4" d="M585.7,49.3v98.4l75.3-44.2V5.2L585.7,49.3z M656.7,100.4l-66.6,39v-87l66.6-39V100.4z"/>
	<path class="st6" d="M661.1,103.6l-75.3,44.2l60,34.9l75.3-44.2L661.1,103.6z M645.7,177.2l-50.4-29.3l65.5-38.4l50.4,29.3
		L645.7,177.2z"/>
	<path class="st6" d="M661.1,5.2v98.4l60,34.9V40.1L661.1,5.2z M717.3,130l-52.3-30.5V13.7l52.3,30.5V130z"/>
	<polygon class="st7" points="707,115.9 656.7,86.6 656.7,31.6 707,60.9 	"/>
	<polygon class="st7" points="693.7,123.4 643.4,94.2 643.4,39.2 693.7,68.4 	"/>
	<polygon class="st7" points="682.3,130.5 632,101.3 632,46.3 682.3,75.5 	"/>
	<polygon class="st7" points="669.1,138.1 618.8,108.9 618.8,53.9 669.1,83.1 	"/>
	<polygon class="st6" points="588.5,144.5 600.3,152 588.4,125 	"/>
	<g>
		<polygon class="st8" points="645.5,142.7 645.5,83.3 616.7,66.5 604.2,73.8 604.1,133.2 633,150 		"/>
		<polyline class="st9" points="604.2,73.8 632.1,90.7 633,150 		"/>
		<line class="st10" x1="611.2" y1="100.4" x2="624.9" y2="108.7"/>
		<line class="st10" x1="608.1" y1="103.5" x2="621.8" y2="111.8"/>
		<line class="st10" x1="603.5" y1="87.9" x2="617.2" y2="96.2"/>
		<line class="st10" x1="611.5" y1="114.5" x2="625.2" y2="122.8"/>
		<line class="st10" x1="645.5" y1="83.3" x2="632.1" y2="90.7"/>
	</g>
	<polygon class="st6" points="642.6,88.8 630.8,81.3 642.8,108.2 	"/>
	<polygon class="st6" points="599.5,63.3 588.9,78.2 588.9,54.6 	"/>
	<polygon class="st6" points="717.6,136 705.8,143.4 717.8,116.5 	"/>
	<polygon class="st5" points="706.6,54.7 717.2,69.7 717.2,46.1 	"/>
	<polygon class="st6" points="631.3,168.8 641.9,153.9 641.9,177.5 	"/>
	<polygon class="st5" points="649.2,88.8 661.1,81.3 649.1,108.2 	"/>
	<polygon class="st6" points="660.5,168.8 649.9,153.9 649.9,177.5 	"/>
	<path class="st6" d="M585.7,49.3v98.4l60,34.9V84.2L585.7,49.3z M641.5,173.2l-51.5-30V58.8l51.5,30V173.2z"/>
	<path class="st6" d="M645.6,84.5l0.1,98.2l75.3-44.2V40.1L645.6,84.5z M715.9,134.7l-64.9,38.1l-0.1-84.6l65.1-38.3V134.7z"/>
	<polygon class="st6" points="603.6,42.8 603.6,56.6 590.8,48.4 	"/>
	<polygon class="st6" points="702.6,33.8 702.6,47.6 715.4,39.4 	"/>
	<polygon class="st6" points="649.5,16.1 673.9,16.1 660.6,8.5 	"/>
	<polygon class="st6" points="633.7,73.2 658.2,73.2 644.9,80.7 	"/>
	<path class="st6" d="M661.1,5.3l-75.3,44.2l60,34.9l75.3-44.2L661.1,5.3z M645.7,78.9l-50.4-29.3l65.5-38.4l50.4,29.3L645.7,78.9z"
		/>
	<polygon class="st6" points="650.8,88.2 650.8,109.7 715.8,72.5 715.9,49.9 	"/>
	<path class="st4" d="M669,117.1c23.1,4.4,21.4-28,3.1-30.6"/>
	<path class="st4" d="M682.1,110.6c23.1,4.4,21.4-28,3.1-30.6"/>
	<path class="st4" d="M694.3,103.6c23.1,4.4,21.4-28,3.1-30.6"/>
	<polygon class="st3" points="585.7,147.7 585.7,49.4 661.1,5.3 721.1,40.2 721.1,138.5 645.7,182.7 	"/>
</g>
<g>
	<polygon class="st8" points="133.7,207 240.7,268.8 341.3,210.8 234.1,148.4 	"/>
	<polygon class="st8" points="133.7,235.9 133.7,207 240.7,268.8 240.7,297.7 	"/>
	<polygon class="st8" points="341.3,210.8 240.7,268.8 240.7,297.7 341.3,239.7 	"/>
	<path class="st11" d="M138.8,214.6l-4.7,2.9c-2.6,1.6-4.2,4.5-4.2,7.6v7.1c0,2.5,2.7,4.1,4.9,2.9l4-2.2"/>
	<path class="st11" d="M235.4,271.1l-4.7,2.9c-2.6,1.6-4.2,4.5-4.2,7.6v7.1c0,2.5,2.7,4.1,4.9,2.9l4-2.2"/>
	<polygon class="st12" points="194.7,248.7 150,223.1 150,239.3 194.7,264.9 	"/>
	<polygon class="st13" points="206.5,255.7 201.6,252.9 201.6,259.3 206.5,262.1 	"/>
	<polygon class="st13" points="216.1,261.4 211.2,258.6 211.2,265 216.1,267.8 	"/>
	<line class="st1" x1="155.1" y1="242.4" x2="155.1" y2="226"/>
	<line class="st1" x1="160.6" y1="245.5" x2="160.6" y2="229.2"/>
	<line class="st1" x1="166.2" y1="248.7" x2="166.2" y2="232.4"/>
	<line class="st1" x1="171.7" y1="251.8" x2="171.7" y2="235.5"/>
	<line class="st1" x1="177.3" y1="255" x2="177.3" y2="238.7"/>
	<line class="st1" x1="182.8" y1="258.2" x2="182.8" y2="241.8"/>
	<line class="st1" x1="188.4" y1="261.3" x2="188.4" y2="245"/>
</g>
<g>
	<polygon class="st8" points="133.7,159.7 240.7,221.4 341.3,163.4 234.1,101.1 	"/>
	<polygon class="st8" points="133.7,188.6 133.7,159.7 240.7,221.4 240.7,250.4 	"/>
	<polygon class="st8" points="341.3,163.4 240.7,221.4 240.7,250.4 341.3,192.4 	"/>
	<path class="st11" d="M138.8,167.3l-4.7,2.9c-2.6,1.6-4.2,4.5-4.2,7.6v7.1c0,2.5,2.7,4.1,4.9,2.9l4-2.2"/>
	<path class="st11" d="M235.4,223.8l-4.7,2.9c-2.6,1.6-4.2,4.5-4.2,7.6v7.1c0,2.5,2.7,4.1,4.9,2.9l4-2.2"/>
	<polygon class="st12" points="194.7,201.3 150,175.7 150,192 194.7,217.6 	"/>
	<polygon class="st13" points="206.5,208.4 201.6,205.6 201.6,212 206.5,214.8 	"/>
	<polygon class="st13" points="216.1,214.1 211.2,211.3 211.2,217.7 216.1,220.5 	"/>
	<line class="st1" x1="155.1" y1="195" x2="155.1" y2="178.7"/>
	<line class="st1" x1="160.6" y1="198.2" x2="160.6" y2="181.9"/>
	<line class="st1" x1="166.2" y1="201.3" x2="166.2" y2="185"/>
	<line class="st1" x1="171.7" y1="204.5" x2="171.7" y2="188.2"/>
	<line class="st1" x1="177.3" y1="207.7" x2="177.3" y2="191.3"/>
	<line class="st1" x1="182.8" y1="210.8" x2="182.8" y2="194.5"/>
	<line class="st1" x1="188.4" y1="214" x2="188.4" y2="197.7"/>
</g>
<g>
	<polygon class="st8" points="133.7,112.3 240.7,174.1 341.3,116.1 234.1,53.7 	"/>
	<polygon class="st8" points="133.7,141.3 133.7,112.3 240.7,174.1 240.7,203 	"/>
	<polygon class="st8" points="341.3,116.1 240.7,174.1 240.7,203 341.3,145 	"/>
	<path class="st11" d="M138.8,120l-4.7,2.9c-2.6,1.6-4.2,4.5-4.2,7.6v7.1c0,2.5,2.7,4.1,4.9,2.9l4-2.2"/>
	<path class="st11" d="M235.4,176.4l-4.7,2.9c-2.6,1.6-4.2,4.5-4.2,7.6v7.1c0,2.5,2.7,4.1,4.9,2.9l4-2.2"/>
	<polygon class="st12" points="194.7,154 150,128.4 150,144.6 194.7,170.3 	"/>
	<polygon class="st13" points="206.5,161.1 201.6,158.2 201.6,164.6 206.5,167.5 	"/>
	<polygon class="st13" points="216.1,166.8 211.2,163.9 211.2,170.3 216.1,173.2 	"/>
	<line class="st1" x1="155.1" y1="147.7" x2="155.1" y2="131.4"/>
	<line class="st1" x1="160.6" y1="150.8" x2="160.6" y2="134.5"/>
	<line class="st1" x1="166.2" y1="154" x2="166.2" y2="137.7"/>
	<line class="st1" x1="171.7" y1="157.2" x2="171.7" y2="140.8"/>
	<line class="st1" x1="177.3" y1="160.3" x2="177.3" y2="144"/>
	<line class="st1" x1="182.8" y1="163.5" x2="182.8" y2="147.2"/>
	<line class="st1" x1="188.4" y1="166.6" x2="188.4" y2="150.3"/>
</g>
<g>
	<polygon class="st8" points="133.7,63.2 240.7,125 341.3,67 234.1,4.6 	"/>
	<polygon class="st8" points="133.7,92.2 133.7,63.2 240.7,125 240.7,153.9 	"/>
	<polygon class="st8" points="341.3,67 240.7,125 240.7,153.9 341.3,95.9 	"/>
	<path class="st11" d="M138.8,70.9l-4.7,2.9c-2.6,1.6-4.2,4.5-4.2,7.6v7.1c0,2.5,2.7,4.1,4.9,2.9l4-2.2"/>
	<path class="st11" d="M235.4,127.3l-4.7,2.9c-2.6,1.6-4.2,4.5-4.2,7.6v7.1c0,2.5,2.7,4.1,4.9,2.9l4-2.2"/>
	<polygon class="st12" points="194.7,104.9 150,79.3 150,95.5 194.7,121.2 	"/>
	<polygon class="st13" points="206.5,112 201.6,109.1 201.6,115.5 206.5,118.4 	"/>
	<polygon class="st13" points="216.1,117.7 211.2,114.8 211.2,121.2 216.1,124.1 	"/>
	<line class="st1" x1="155.1" y1="98.6" x2="155.1" y2="82.3"/>
	<line class="st1" x1="160.6" y1="101.7" x2="160.6" y2="85.4"/>
	<line class="st1" x1="166.2" y1="104.9" x2="166.2" y2="88.6"/>
	<line class="st1" x1="171.7" y1="108.1" x2="171.7" y2="91.7"/>
	<line class="st1" x1="177.3" y1="111.2" x2="177.3" y2="94.9"/>
	<line class="st1" x1="182.8" y1="114.4" x2="182.8" y2="98.1"/>
	<line class="st1" x1="188.4" y1="117.5" x2="188.4" y2="101.2"/>
</g>
<path class="st14" d="M780.1,184l-111.3-65.7c-45.7-27-102.4-27.4-148.5-1.2l-14.8,8.4"/>
<path class="st14" d="M402.3,240.1L508,302.5c65.5,38.7,146.9,38.5,212.3-0.4l6.3-3.8"/>
<path class="st8" d="M408.1,140.1c16.9,0,30.5-13.7,30.5-30.5c0-16.9-13.7-30.5-30.5-30.5c-5.3,0-10.2,1.3-14.6,3.7
	c-6-16-21.5-27.4-39.6-27.4c-22.3,0-40.5,17.2-42.2,39c-3.2-1.6-6.8-2.4-10.5-2.4c-13.3,0-24.1,10.8-24.1,24.1s10.8,24.1,24.1,24.1
	H408.1z"/>
<polyline class="st3" points="1145.3,0.2 1145.3,144.6 1087,177.9 832.8,30.7 832.8,0.4 "/>
<polyline class="st4" points="839.5,0.1 839.5,26 1078.8,163.6 1078.8,31.4 1026,0.9 "/>
<polyline class="st4" points="1039.7,0.2 1087.1,27.7 1133.2,0.1 "/>
<line class="st4" x1="1087" y1="177.9" x2="1087" y2="28"/>
<line class="st4" x1="901.8" y1="1.1" x2="1078.8" y2="103.3"/>
<line class="st4" x1="1078.8" y1="95.1" x2="914.8" y2="0.1"/>
<line class="st4" x1="956.8" y1="-0.1" x2="956.8" y2="24.6"/>
<polyline class="st4" points="964.3,-0.1 964.3,28.7 1019.2,0.6 1019.2,60.7 "/>
<polyline class="st4" points="1026,0.9 1026,64 1078.8,35.5 "/>
<line class="st4" x1="895" y1="0.4" x2="895" y2="57.9"/>
<line class="st4" x1="901.8" y1="1.1" x2="901.8" y2="61.9"/>
<line class="st4" x1="957" y1="33.1" x2="957" y2="94"/>
<line class="st4" x1="963.9" y1="37.2" x2="963.9" y2="98"/>
<line class="st4" x1="1019" y1="69" x2="1019" y2="129.8"/>
<line class="st4" x1="1025.9" y1="73" x2="1025.9" y2="133.9"/>
<polygon class="st4" points="926.4,33.7 926.4,25.1 940.6,33.5 940.6,42.4 "/>
<polygon class="st4" points="1047.7,104.9 1047.7,96.2 1061.9,104.6 1061.9,113.5 "/>
<polyline class="st4" points="814,254 841.5,272.8 903.6,235.7 "/>
<g>
	<path class="st8" d="M777.5,203.7l1.6,8.4c0.6,3.2,2.6,6,5.4,7.6l18.6,11c5.2,3.1,11.6,3.1,16.7,0.1L842,218
		c2.5-1.4,2.3-5.1-0.3-6.2l-23.6-10.5c-3.7-1.7-6.3-5.2-6.9-9.2l-2.3-17.8L777.5,203.7z"/>
	<path class="st9" d="M780.8,206.6c0,0,0.4,7.2,3.6,9.6c3.2,2.3,14.8,9.6,19.7,12.3c5,2.6,10.4,2.4,14.5,0.1
		c4.1-2.3,24.9-14.4,24.9-14.4"/>
	<path class="st8" d="M718.6,128.9l16.8,92.5c1.2,6.7,8.7,10.1,14.5,6.7l113.9-66.7c5.1-3,7.9-8.8,7-14.6L855.6,48
		c-0.6-3.9-4.9-6-8.4-4l-121.4,69.5C720.4,116.6,717.5,122.7,718.6,128.9z"/>
	<path class="st9" d="M855.1,47.1L735.4,116c-5.4,3.1-8.3,9.3-7.2,15.4l16.3,89.7c0.8,4.3,5.6,6.5,9.3,4.3"/>
	<line class="st15" x1="742.9" y1="212.4" x2="869" y2="138.5"/>
</g>
<g>
	<path class="st5" d="M750.7,311.9L706.6,286l-11.2-50.4c-0.7-3.3,0.8-6.8,3.7-8.5l55.2-32.3c2.5-1.5,5.8-0.1,6.4,2.8l11.2,51
		l40.8,23.8c2.3,1.5,2.3,4.9-0.1,6.4l-52.4,30.8C755.7,312.3,754.2,313.7,750.7,311.9z"/>
	<polygon class="st4" points="710.6,277.1 700.4,231.8 756,199.4 766.2,244.2 	"/>
	<polygon class="st4" points="720.7,284.1 742.9,297.1 793.3,268.1 771,254.8 	"/>
	<polyline class="st4" points="771.9,248.7 711.4,283.8 706.6,286 	"/>
	<line class="st4" x1="711.4" y1="283.8" x2="755.4" y2="312.4"/>
	<polygon class="st4" points="765,289.5 773.1,294.3 786,286.8 777.9,281.9 	"/>
</g>
<line class="st2" x1="743.6" y1="131.7" x2="801.5" y2="98.4"/>
<line class="st2" x1="746.2" y1="146.6" x2="785.2" y2="124.2"/>
<line class="st2" x1="748.9" y1="161.5" x2="826.4" y2="116.8"/>
<line class="st2" x1="712.5" y1="237.7" x2="744.5" y2="219.4"/>
<line class="st2" x1="714.3" y1="247.8" x2="740.1" y2="232.9"/>
<path class="st8" d="M301,264.2c-11.4,0-20.6-9.2-20.6-20.6c0-11.4,9.2-20.6,20.6-20.6c3.9,0,7.6,1.1,10.7,3
	c-2.1-5.9-3.2-12.3-3.2-18.9c0-31.5,25.5-57,57-57c12.1,0,23.4,3.8,32.6,10.3c10.2-32.5,40.5-56.1,76.3-56.1
	c44.1,0,79.9,35.8,79.9,79.9c0,2-0.1,4.1-0.3,6.1c6-3.6,12.9-5.6,20.4-5.6c21.9,0,39.7,17.8,39.7,39.7s-17.8,39.7-39.7,39.7H301z"/>
<g>
	<polyline class="st2" points="342.1,102.2 356.5,116.5 371.1,101.9 	"/>
	<line class="st2" x1="356.5" y1="116.5" x2="356.5" y2="78.5"/>
	<line class="st2" x1="342.1" y1="120.9" x2="372.1" y2="120.9"/>
</g>
<g>
	<polyline class="st2" points="453.3,192.7 467.6,207.1 482.3,192.4 	"/>
	<line class="st2" x1="467.6" y1="207.1" x2="467.6" y2="169.1"/>
	<line class="st2" x1="453.3" y1="211.4" x2="483.2" y2="211.4"/>
</g>
<g>
	<polyline class="st2" points="302.5,271.6 316.8,286 331.5,271.3 	"/>
	<line class="st2" x1="316.8" y1="286" x2="316.8" y2="248"/>
	<line class="st2" x1="302.5" y1="290.3" x2="332.4" y2="290.3"/>
</g>
<path class="st8" d="M185.4,325.6c-9.5,0-17.2-7.7-17.2-17.2c0-9.5,7.7-17.2,17.2-17.2c3.3,0,6.3,0.9,8.9,2.5
	c-1.7-5-2.7-10.3-2.7-15.8c0-26.3,21.3-47.7,47.7-47.7c10.1,0,19.5,3.2,27.3,8.6c8.5-27.1,33.8-46.9,63.8-46.9
	c36.9,0,66.8,29.9,66.8,66.8c0,1.7-0.1,3.4-0.2,5.1c5-3,10.8-4.7,17-4.7c18.3,0,33.2,14.9,33.2,33.2s-14.9,33.2-33.2,33.2H185.4z"/>
<g>
	<polyline class="st2" points="298.1,269 312.4,283.4 327.1,268.7 	"/>
	<line class="st2" x1="312.4" y1="283.4" x2="312.4" y2="245.3"/>
	<line class="st2" x1="298.1" y1="287.7" x2="328" y2="287.7"/>
</g>
<path class="st6" d="M1013.4,317.1v-23.3l-10-5.1v22.4"/>
<g>
	<path class="st8" d="M1207.1,232.4l8.1,30.1c0,6.2,8.9,11.2,19.9,11.2c11,0,19.9-5,19.9-11.2l8.1-30.1l-5.7-9.6l-45.3,1
		L1207.1,232.4z"/>
	<path class="st8" d="M1207.1,232.4c0-8.7,12.6-15.7,28-15.7s28,7,28,15.7"/>
	<ellipse class="st10" cx="1235.1" cy="232.4" rx="22" ry="12.3"/>
	<path class="st9" d="M1263.2,232.4c0,8.7-12.6,15.7-28,15.7s-28-7-28-15.7"/>
	<path class="st7" d="M1306.4,160c0,0-2.9,1.7-6.1,4.1c0-1,0.1-2.1,0.1-3.2c0-0.9,0-1.7-0.1-2.6c2.1-2.6,4.3-6.3,4.4-10.8
		c0.3-9-4.2-15.9-4.2-15.9s-1.9,1.9-4,4.6c-6.2-21.2-19.7-42.2-36.8-53.6c0.3-5.5-1.1-9.6-1.1-9.6s-3.7,2.1-7.2,5
		c-6-2.7-12.3-4.2-18.8-4.2c-22.1,0-41.7,17.4-54.1,39.3c-3.2-1.2-6.1-1.7-6.1-1.7s0.7,4.6,2.4,8.9c-6,12.6-9.5,26.3-9.9,38.7
		c-3.2-1.4-5.5-1.8-5.5-1.8s0.4,12.9,4.8,17.5c0.8,0.8,1.7,1.5,2.8,2.2c7.7,29.2,36.2,49.5,68.1,49.5c27.6,0,50-15.2,59.8-38.1
		c2.3-1,9.2-4.6,11.4-11.7C1309,167.9,1306.4,160,1306.4,160z"/>
	<path class="st9" d="M1258.5,249.6c0,7.2-10.5,13.1-23.4,13.1s-23.4-5.9-23.4-13.1"/>
	<line class="st16" x1="1235.6" y1="235.8" x2="1235.6" y2="226.2"/>
	<path class="st7" d="M1279.8,133.3c0,0-10.6,5-12,12.3c-1.4,7.3,2.5,14.5,2.5,14.5s5.8-5.7,8.8-11.7
		C1282.1,142.5,1279.8,133.3,1279.8,133.3z"/>
	<path class="st7" d="M1251.2,137.5c0,0,0.4,12.9,4.8,17.5c4.4,4.6,14.6,6.7,14.6,6.7s1.4-10-4.9-16.4
		C1259.3,138.9,1251.2,137.5,1251.2,137.5z"/>
	<path class="st7" d="M1191.7,187.9c0,0-2.7,12.7,0.5,18.1c3.2,5.5,12.5,10,12.5,10s3.8-9.4-0.8-17.1
		C1199.3,191.3,1191.7,187.9,1191.7,187.9z"/>
	<path class="st7" d="M1204.1,75.5c0,0-5.9,11.5-4.3,17.6c1.7,6.1,9.5,12.9,9.5,12.9s6.1-8.1,3.6-16.7S1204.1,75.5,1204.1,75.5z"/>
	<path class="st7" d="M1289,107.7c0,0-10.6,3.6-14.1,8.5c-3.5,4.9-2.3,12.9-2.3,12.9s7.4-2,11.8-6.3
		C1289,118.3,1289,107.7,1289,107.7z"/>
	<path class="st7" d="M1187.2,215.9c0,0,8,7.9,13.9,8.8c5.9,0.9,12.5-3.7,12.5-3.7s-5.1-5.7-11-7.8
		C1196.8,211.2,1187.2,215.9,1187.2,215.9z"/>
</g>
<path class="st3" d="M1024.2,323.4L987,301.2c-8.2-4.8-18.4-4.6-26.4,0.5l-52.5,31c-9.1,6-13.6,18.8-0.9,27.5l15.3,9.2"/>
<path class="st4" d="M924.2,357.8l-14-8.4c-12.6-8-2-16.7-2-16.7"/>
<line class="st4" x1="943.7" y1="369.6" x2="934.4" y2="364"/>
<path class="st4" d="M934.5,369.5v-30.8l-10-5.1v35.8"/>
<path class="st5" d="M893.8,328v1.7c0,0,38.3,23.4,48.5,29c14.6,8,26.1,0.8,27.5-2.7c1.4-3.5,0.8-8.2-4.1-11.1
	c-4-2.4-39.4-22.4-52.1-29.6c-2.8-1.6-6.3-1.5-9,0.2l-6,3.8C895.6,321.2,893.8,324.5,893.8,328z"/>
<path class="st6" d="M895.2,323.8c0,0,36.9,22.3,47,27.9c14.6,8,26.1,0.8,27.5-2.7"/>
<path class="st5" d="M1036,288.2c-12.4-7.1-28.9-16.4-36.8-20.9c-2.8-1.6-6.3-1.5-9,0.2l-6,3.8c-3,1.9-4.8,5.2-4.8,8.7v1.7
	c0,0,38.3,23.4,48.5,29"/>
<path class="st6" d="M980.9,275.8c0,0,36.9,22.3,47,27.9c0.8,0.4,1.6,0.8,2.3,1.2"/>
<path class="st3" d="M1008.5,369.4l35.4-104.6c2.3-6.9,7-12.7,13.2-16.4l66.1-39.7c1.9-1.1,4.2-1.1,6,0.1h0c2,1.3,2.9,3.8,2.3,6.1
	l-33.7,124.6c-1.9,7.1-6.6,13.3-12.9,17.1l-21.3,12.8"/>
<path class="st4" d="M1022.2,369.6l33.3-98.5c2.3-6.9,7-12.7,13.2-16.4l61.8-37"/>
<polyline class="st9" points="951.3,169.6 919,181.5 889.5,153.2 "/>
<polygon class="st17" points="951.3,175.4 951.3,169.6 921.9,141.3 889.5,153.2 889.5,159 919,187.3 "/>
<g>
	<path class="st8" d="M953.6,161.4c5.7,0,10.4,2.5,10.4,5.6v22.3c0,3.1-4.7,5.6-10.4,5.6c-5.7,0-10.4-2.5-10.4-5.6V167
		C943.2,163.9,947.8,161.4,953.6,161.4z"/>
	<path class="st10" d="M943.2,167c0,3.1,4.7,5.6,10.4,5.6c5.7,0,10.4-2.5,10.4-5.6"/>
	<path class="st17" d="M943.2,184.4c-10.1,0-10.1-13.4,0-13.4"/>
</g>
<path class="st17" d="M912.9,227.8c1,1,2.9,2.3,5,3.7c5.5,3.4,12.5,3.4,18-0.2v0c2.4-1.5,2.9-4.7,1.2-7c-2.3-3-5.6-6.7-9.1-8.3
	C918.9,211.9,904.9,219.7,912.9,227.8z"/>
<circle class="st18" cx="520.8" cy="309.1" r="4.6"/>
<circle class="st18" cx="693.5" cy="132" r="4.6"/>
<circle class="st18" cx="547.4" cy="105.7" r="4.6"/>
</svg>
