<?xml version="1.0" encoding="UTF-8"?>
<svg width="100px" height="70px" viewBox="0 0 100 70" version="1.1" xmlns="http://www.w3.org/2000/svg" xmlns:xlink="http://www.w3.org/1999/xlink">
    <!-- Generator: Sketch 49.1 (51147) - http://www.bohemiancoding.com/sketch -->
    <title>icSkywir</title>
    <desc>Created with Sketch.</desc>
    <defs></defs>
    <g id="icSkywir" stroke="none" stroke-width="1" fill="none" fill-rule="evenodd">
        <g id="skywir" transform="translate(8.000000, 0.000000)" fill-rule="nonzero">
            <g id="Vector" transform="translate(11.000000, 22.000000)" fill="#0072FF">
                <g id="path0_fill-link" transform="translate(0.250000, 0.700000)">
                    <path d="M4.94263,9.92067 C7.67237,9.92067 9.88525,7.69985 9.88525,4.96034 C9.88525,2.22082 7.67237,2.25936e-06 4.94263,2.25936e-06 C2.21289,2.25936e-06 0,2.22082 0,4.96034 C0,7.69985 2.21289,9.92067 4.94263,9.92067 Z" id="path0_fill"></path>
                </g>
            </g>
            <g id="Vector" transform="translate(20.000000, 19.000000)" fill="#0072FF">
                <g id="path1_stroke-link" transform="translate(0.140000, 0.900000)">
                    <path d="M0.508066,18.753 C0.458665,19.0246 0.638864,19.2849 0.9105512,19.3343 C1.182239,19.3837 1.442533,19.2035 1.491934,18.9319 L0.508066,18.753 Z M30.532,3.16212 C30.7857,3.27122 31.0797,3.15403 31.1889,2.90035 C31.298,2.64668 31.1808,2.35259 30.9271,2.24348 L30.532,3.16212 Z M1.491934,18.9319 C3.29406,9.0208 11.9444,1.499995 22.3197,1.499995 L22.3197,0.499995 C11.449,0.499995 2.39446,8.37846 0.508066,18.753 L1.491934,18.9319 Z M22.3197,1.499995 C25.2772,1.499995 28.0132,2.07876 30.532,3.16212 L30.9271,2.24348 C28.282,1.105796 25.4114,0.499995 22.3197,0.499995 L22.3197,1.499995 Z" id="path1_stroke"></path>
                </g>
            </g>
            <g id="Vector" transform="translate(30.000000, 45.000000)" fill="#0072FF">
                <g id="path2_stroke-link" transform="translate(0.470000, 0.100000)">
                    <path d="M34.2496,1.0671654 C34.2867,0.793526 34.0949,0.541625 33.8213,0.504528 C33.5477,0.467431 33.2958,0.659186 33.2587,0.9328256 L34.2496,1.0671654 Z M1.251983,16.8558 C1.0134724,16.7166 0.707305,16.7972 0.568139,17.0357 C0.428973,17.2742 0.509508,17.5804 0.748019,17.7195 L1.251983,16.8558 Z M33.2587,0.9328256 C31.8163,11.5724 22.8029,19.675 11.8443,19.675 L11.8443,20.675 C23.3119,20.675 32.7412,12.1939 34.2496,1.0671654 L33.2587,0.9328256 Z M11.8443,19.675 C7.94894,19.675 4.34741,18.6619 1.251983,16.8558 L0.748019,17.7195 C3.99686,19.6152 7.77238,20.675 11.8443,20.675 L11.8443,19.675 Z" id="path2_stroke"></path>
                </g>
            </g>
            <g id="Vector" transform="translate(0.000000, 37.000000)" fill="#FFFFFF">
                <g id="path3_stroke-link" transform="translate(0.000000, 0.500000)">
                    <path d="M1.00000002,1 L1.00000002,0 L0,0 L0,1 L1.00000002,1 Z M31.3197,1 L32.3197,1 L32.3197,0 L31.3197,0 L31.3197,1 Z M31.3197,31.5024 L31.3197,32.5024 L32.3197,32.5024 L32.3197,31.5024 L31.3197,31.5024 Z M1.00000002,31.5024 L0,31.5024 L0,32.5024 L1.00000002,32.5024 L1.00000002,31.5024 Z M1.00000002,1.999998 L31.3197,1.999998 L31.3197,0 L1.00000002,0 L1.00000002,1.999998 Z M30.3197,0.999997741 L30.3197,31.5024 L32.3197,31.5024 L32.3197,0.999997741 L30.3197,0.999997741 Z M31.3197,30.5024 L1.00000002,30.5024 L1.00000002,32.5024 L31.3197,32.5024 L31.3197,30.5024 Z M2,31.5024 L2,0.999997741 L0,0.999997741 L0,31.5024 L2,31.5024 Z" id="path3_stroke"></path>
                </g>
            </g>
            <g id="Vector" transform="translate(61.000000, 0.000000)" fill="#0072FF">
                <g id="path4_fill-link" transform="translate(0.570000, 0.000000)">
                    <path d="M4.94263,9.92068 C7.67237,9.92068 9.88525,7.69985 9.88525,4.96033 C9.88525,2.22081 7.67237,-2.25936e-06 4.94263,-2.25936e-06 C2.21289,-2.25936e-06 -2.2513e-06,2.22081 -2.2513e-06,4.96033 C-2.2513e-06,7.69985 2.21289,9.92068 4.94263,9.92068 Z" id="path4_fill"></path>
                </g>
            </g>
            <g id="Vector" transform="translate(7.000000, 43.000000)" fill="#0072FF">
                <g id="path5_stroke-link" transform="translate(0.380000, 0.800000)">
                    <path d="M0.5,18.8424 C0.5,19.1185 0.723858,19.3424 1.00000038,19.3424 C1.276143,19.3424 1.5,19.1185 1.5,18.8424 L0.5,18.8424 Z M1.5,0.999997741 C1.5,0.723855 1.276143,0.499998 1.00000038,0.499998 C0.723858,0.499998 0.5,0.723855 0.5,0.999997741 L1.5,0.999997741 Z M1.5,18.8424 L1.5,0.999997741 L0.5,0.999997741 L0.5,18.8424 L1.5,18.8424 Z" id="path5_stroke"></path>
                </g>
            </g>
            <g id="Vector" transform="translate(14.000000, 43.000000)" fill="#0072FF">
                <g id="path5_stroke-link" transform="translate(0.750000, 0.800000)">
                    <path d="M0.5,18.8424 C0.5,19.1185 0.723858,19.3424 1.00000038,19.3424 C1.276143,19.3424 1.5,19.1185 1.5,18.8424 L0.5,18.8424 Z M1.5,0.999997741 C1.5,0.723855 1.276143,0.499998 1.00000038,0.499998 C0.723858,0.499998 0.5,0.723855 0.5,0.999997741 L1.5,0.999997741 Z M1.5,18.8424 L1.5,0.999997741 L0.5,0.999997741 L0.5,18.8424 L1.5,18.8424 Z" id="path5_stroke"></path>
                </g>
            </g>
            <g id="Vector" transform="translate(22.000000, 43.000000)" fill="#0072FF">
                <g id="path5_stroke-link" transform="translate(0.130000, 0.800000)">
                    <path d="M0.5,18.8424 C0.5,19.1185 0.723858,19.3424 1.00000038,19.3424 C1.276143,19.3424 1.5,19.1185 1.5,18.8424 L0.5,18.8424 Z M1.5,0.999997741 C1.5,0.723855 1.276143,0.499998 1.00000038,0.499998 C0.723858,0.499998 0.5,0.723855 0.5,0.999997741 L1.5,0.999997741 Z M1.5,18.8424 L1.5,0.999997741 L0.5,0.999997741 L0.5,18.8424 L1.5,18.8424 Z" id="path5_stroke"></path>
                </g>
            </g>
            <g id="Vector" transform="translate(50.000000, 14.000000)" fill="#FFFFFF">
                <g id="path6_stroke-link" transform="translate(0.680000, 0.800000)">
                    <path d="M1.00000225,1 L1.00000225,0 L2e-06,0 L2e-06,1 L1.00000225,1 Z M31.3197,1 L32.3197,1 L32.3197,0 L31.3197,0 L31.3197,1 Z M31.3197,31.5024 L31.3197,32.5024 L32.3197,32.5024 L32.3197,31.5024 L31.3197,31.5024 Z M1.00000225,31.5024 L2e-06,31.5024 L2e-06,32.5024 L1.00000225,32.5024 L1.00000225,31.5024 Z M1.00000225,2 L31.3197,2 L31.3197,0 L1.00000225,0 L1.00000225,2 Z M30.3197,1 L30.3197,31.5024 L32.3197,31.5024 L32.3197,1 L30.3197,1 Z M31.3197,30.5024 L1.00000225,30.5024 L1.00000225,32.5024 L31.3197,32.5024 L31.3197,30.5024 Z M2,31.5024 L2,1 L2e-06,1 L2e-06,31.5024 L2,31.5024 Z" id="path6_stroke"></path>
                </g>
            </g>
            <g id="Vector" transform="translate(58.000000, 21.000000)" fill="#0072FF">
                <g id="path7_stroke-link" transform="translate(0.130000, 0.100000)">
                    <path d="M0.500002,18.8424 C0.500002,19.1185 0.723859,19.3424 1.00000153,19.3424 C1.276144,19.3424 1.500002,19.1185 1.500002,18.8424 L0.500002,18.8424 Z M1.500002,1.00000452 C1.500002,0.723862 1.276144,0.500005 1.00000153,0.500005 C0.723859,0.500005 0.500002,0.723862 0.500002,1.00000452 L1.500002,1.00000452 Z M1.500002,18.8424 L1.500002,1.00000452 L0.500002,1.00000452 L0.500002,18.8424 L1.500002,18.8424 Z" id="path7_stroke"></path>
                </g>
            </g>
            <g id="Vector" transform="translate(65.000000, 21.000000)" fill="#0072FF">
                <g id="path7_stroke-link" transform="translate(0.510000, 0.100000)">
                    <path d="M0.500002,18.8424 C0.500002,19.1185 0.723859,19.3424 1.00000153,19.3424 C1.276144,19.3424 1.500002,19.1185 1.500002,18.8424 L0.500002,18.8424 Z M1.500002,1.00000452 C1.500002,0.723862 1.276144,0.500005 1.00000153,0.500005 C0.723859,0.500005 0.500002,0.723862 0.500002,1.00000452 L1.500002,1.00000452 Z M1.500002,18.8424 L1.500002,1.00000452 L0.500002,1.00000452 L0.500002,18.8424 L1.500002,18.8424 Z" id="path7_stroke"></path>
                </g>
            </g>
            <g id="Vector" transform="translate(72.000000, 21.000000)" fill="#0072FF">
                <g id="path7_stroke-link" transform="translate(0.890000, 0.100000)">
                    <path d="M0.500002,18.8424 C0.500002,19.1185 0.723859,19.3424 1.00000153,19.3424 C1.276144,19.3424 1.500002,19.1185 1.500002,18.8424 L0.500002,18.8424 Z M1.500002,1.00000452 C1.500002,0.723862 1.276144,0.500005 1.00000153,0.500005 C0.723859,0.500005 0.500002,0.723862 0.500002,1.00000452 L1.500002,1.00000452 Z M1.500002,18.8424 L1.500002,1.00000452 L0.500002,1.00000452 L0.500002,18.8424 L1.500002,18.8424 Z" id="path7_stroke"></path>
                </g>
            </g>
        </g>
    </g>
</svg>